P3
# Tensor-Engine llava_project sample image (ASCII PPM)
4 4
255
255 0 0   255 0 0   0 255 0   0 255 0
255 0 0   255 0 0   0 255 0   0 255 0
0 0 255   0 0 255   255 255 255 255 255 255
0 0 255   0 0 255   255 255 255 255 255 255
